<svg width="16" height="16" viewBox="0 0 16 16" fill="none" xmlns="http://www.w3.org/2000/svg">
<path d="M8.00016 11.3333C8.18905 11.3333 8.34738 11.2694 8.47516 11.1417C8.60294 11.0139 8.66683 10.8556 8.66683 10.6667C8.66683 10.4778 8.60294 10.3194 8.47516 10.1917C8.34738 10.0639 8.18905 10 8.00016 10C7.81127 10 7.65294 10.0639 7.52516 10.1917C7.39738 10.3194 7.3335 10.4778 7.3335 10.6667C7.3335 10.8556 7.39738 11.0139 7.52516 11.1417C7.65294 11.2694 7.81127 11.3333 8.00016 11.3333ZM8.00016 8.66666C8.18905 8.66666 8.34738 8.60278 8.47516 8.475C8.60294 8.34722 8.66683 8.18889 8.66683 8C8.66683 7.81111 8.60294 7.65278 8.47516 7.525C8.34738 7.39722 8.18905 7.33333 8.00016 7.33333C7.81127 7.33333 7.65294 7.39722 7.52516 7.525C7.39738 7.65278 7.3335 7.81111 7.3335 8C7.3335 8.18889 7.39738 8.34722 7.52516 8.475C7.65294 8.60278 7.81127 8.66666 8.00016 8.66666ZM8.00016 6C8.18905 6 8.34738 5.93611 8.47516 5.80833C8.60294 5.68055 8.66683 5.52222 8.66683 5.33333C8.66683 5.14444 8.60294 4.98611 8.47516 4.85833C8.34738 4.73055 8.18905 4.66666 8.00016 4.66666C7.81127 4.66666 7.65294 4.73055 7.52516 4.85833C7.39738 4.98611 7.3335 5.14444 7.3335 5.33333C7.3335 5.52222 7.39738 5.68055 7.52516 5.80833C7.65294 5.93611 7.81127 6 8.00016 6ZM13.3335 13.3333H2.66683C2.30016 13.3333 1.98627 13.2028 1.72516 12.9417C1.46405 12.6806 1.3335 12.3667 1.3335 12V9.33333C1.70016 9.33333 2.01405 9.20278 2.27516 8.94166C2.53627 8.68055 2.66683 8.36666 2.66683 8C2.66683 7.63333 2.53627 7.31944 2.27516 7.05833C2.01405 6.79722 1.70016 6.66666 1.3335 6.66666V4C1.3335 3.63333 1.46405 3.31944 1.72516 3.05833C1.98627 2.79722 2.30016 2.66666 2.66683 2.66666H13.3335C13.7002 2.66666 14.0141 2.79722 14.2752 3.05833C14.5363 3.31944 14.6668 3.63333 14.6668 4V6.66666C14.3002 6.66666 13.9863 6.79722 13.7252 7.05833C13.4641 7.31944 13.3335 7.63333 13.3335 8C13.3335 8.36666 13.4641 8.68055 13.7252 8.94166C13.9863 9.20278 14.3002 9.33333 14.6668 9.33333V12C14.6668 12.3667 14.5363 12.6806 14.2752 12.9417C14.0141 13.2028 13.7002 13.3333 13.3335 13.3333ZM13.3335 12V10.3C12.9224 10.0556 12.5974 9.73055 12.3585 9.325C12.1196 8.91944 12.0002 8.47778 12.0002 8C12.0002 7.52222 12.1196 7.08055 12.3585 6.675C12.5974 6.26944 12.9224 5.94444 13.3335 5.7V4H2.66683V5.7C3.07794 5.94444 3.40294 6.26944 3.64183 6.675C3.88072 7.08055 4.00016 7.52222 4.00016 8C4.00016 8.47778 3.88072 8.91944 3.64183 9.325C3.40294 9.73055 3.07794 10.0556 2.66683 10.3V12H13.3335Z" fill="black"/>
</svg>
